<svg width="19" height="19" viewBox="0 0 19 19" fill="none" xmlns="http://www.w3.org/2000/svg">
<path d="M15.6094 0.5C16.2071 0.500069 16.7804 0.737527 17.2031 1.16016C17.6259 1.58297 17.8633 2.15694 17.8633 2.75488V9.18164C17.8633 13.9766 13.9766 17.8633 9.18164 17.8633C4.71127 17.8632 1.03159 14.484 0.553711 10.1406H4.02832C4.9481 10.1406 5.76881 10.204 6.41895 10.6045H6.41992C6.91925 10.9119 7.34634 11.3235 7.67285 11.8105C7.95855 12.2368 8.16194 12.7129 8.27148 13.2129L8.3125 13.4287L8.34082 13.6045L8.34766 13.6465L8.36133 13.6865C8.41988 13.8575 8.53071 14.0062 8.67773 14.1113C8.82476 14.2163 9.00094 14.2724 9.18164 14.2725C9.36255 14.2725 9.53938 14.2165 9.68652 14.1113C9.83358 14.0062 9.9444 13.8576 10.0029 13.6865L10.0166 13.6465L10.0225 13.6045L10.0518 13.4287C10.19 12.583 10.5903 11.8023 11.1963 11.1963C11.7266 10.6659 12.3907 10.2927 13.1152 10.1152L13.4287 10.0518L13.6045 10.0225L13.6465 10.0166L13.6865 10.0029C13.8576 9.94441 14.0062 9.83357 14.1113 9.68652C14.2165 9.53938 14.2725 9.36255 14.2725 9.18164C14.2724 9.04605 14.2409 8.91306 14.1807 8.79297L14.1113 8.67773L14.0244 8.57422C13.9303 8.47837 13.8148 8.40524 13.6865 8.36133L13.6465 8.34766L13.6045 8.34082L13.4287 8.3125C12.8499 8.21794 12.2978 7.99937 11.8105 7.67285C11.3235 7.34634 10.9119 6.91926 10.6045 6.41992V6.41895C10.204 5.76881 10.1406 4.94809 10.1406 4.02832V0.5H15.6094ZM2.75488 0.5H8.22266V4.02832C8.22265 4.94818 8.15932 5.76878 7.75879 6.41895C7.42297 6.96398 6.96398 7.42297 6.41895 7.75879C5.76878 8.15935 4.94818 8.22264 4.02832 8.22266H0.5V2.75488C0.5 2.15694 0.737347 1.58297 1.16016 1.16016C1.58296 0.737364 2.15695 0.5 2.75488 0.5Z" fill="#375DFB" stroke="black"/>
</svg>
